<?xml version="1.0" encoding="UTF-8" standalone="no"?>
<!DOCTYPE svg PUBLIC "-//W3C//DTD SVG 1.1//EN" "http://www.w3.org/Graphics/SVG/1.1/DTD/svg11.dtd">
<svg width="100%" height="100%" viewBox="0 0 655 655" version="1.1" xmlns="http://www.w3.org/2000/svg" xmlns:xlink="http://www.w3.org/1999/xlink" xml:space="preserve" xmlns:serif="http://www.serif.com/" style="fill-rule:evenodd;clip-rule:evenodd;stroke-linejoin:round;stroke-miterlimit:2;">
    <g transform="matrix(0.1,0,0,-0.1,0,655)">
        <g transform="matrix(5557.9,0,0,5557.9,496.052,3270.16)">
            <path d="M0.036,0.268L0.057,0.104L0.915,-0.205L0.8,-0.485L-0,-0.388C-0,-0.388 0.853,-0.588 0.853,-0.588C0.861,-0.589 0.912,-0.464 0.918,-0.451C0.939,-0.407 0.963,-0.363 0.982,-0.318C0.986,-0.309 0.989,-0.3 0.991,-0.292C1.01,-0.224 0.998,-0.144 0.958,-0.087C0.921,-0.035 0.865,0.003 0.813,0.037C0.774,0.063 0.734,0.087 0.693,0.108C0.714,0.078 0.735,0.047 0.756,0.017C0.768,0 0.78,-0.017 0.791,-0.034C0.796,-0.043 0.801,-0.05 0.804,-0.06C0.806,-0.07 0.807,-0.08 0.808,-0.091C0.793,-0.075 0.776,-0.061 0.759,-0.048C0.734,-0.028 0.709,-0.01 0.679,0.001C0.65,0.013 0.619,0.019 0.589,0.026C0.538,0.038 0.488,0.048 0.437,0.06C0.377,0.076 0.316,0.109 0.258,0.134C0.278,0.133 0.299,0.135 0.316,0.14C0.362,0.155 0.338,0.194 0.338,0.194C0.312,0.221 0.29,0.206 0.29,0.206C0.269,0.187 0.236,0.173 0.236,0.173C0.22,0.166 0.198,0.163 0.181,0.171C0.169,0.176 0.151,0.193 0.154,0.208C0.156,0.221 0.199,0.238 0.21,0.244C0.251,0.262 0.296,0.269 0.338,0.274C0.369,0.278 0.399,0.281 0.43,0.283C0.457,0.285 0.485,0.286 0.512,0.286C0.519,0.286 0.527,0.285 0.535,0.285L0.556,0.279C0.667,0.351 0.439,0.34 0.439,0.34L0.727,0.496L0.838,0.392L0.751,0.59L0.036,0.268ZM0.228,0.148L0.225,0.149L0.225,0.152C0.236,0.155 0.248,0.16 0.259,0.165C0.271,0.172 0.283,0.18 0.293,0.187C0.293,0.187 0.3,0.193 0.305,0.197L0.306,0.197L0.321,0.195L0.321,0.195C0.322,0.194 0.323,0.194 0.324,0.193C0.321,0.191 0.317,0.189 0.317,0.188C0.316,0.187 0.316,0.181 0.317,0.175C0.317,0.171 0.317,0.168 0.318,0.166L0.314,0.168C0.307,0.173 0.298,0.178 0.296,0.175C0.295,0.174 0.295,0.172 0.295,0.169C0.295,0.166 0.294,0.163 0.294,0.162C0.294,0.162 0.287,0.167 0.287,0.167L0.285,0.168L0.283,0.166C0.283,0.166 0.28,0.164 0.278,0.163C0.267,0.159 0.258,0.156 0.247,0.151C0.247,0.151 0.276,0.156 0.28,0.157C0.282,0.158 0.284,0.159 0.286,0.161C0.289,0.159 0.297,0.155 0.299,0.159C0.3,0.161 0.301,0.165 0.301,0.169C0.301,0.169 0.301,0.17 0.301,0.17C0.304,0.169 0.318,0.158 0.322,0.157C0.325,0.156 0.323,0.173 0.323,0.175C0.322,0.18 0.322,0.185 0.322,0.185C0.322,0.185 0.326,0.188 0.329,0.189C0.329,0.189 0.33,0.188 0.331,0.187C0.333,0.185 0.334,0.183 0.335,0.18C0.336,0.177 0.336,0.174 0.336,0.172C0.336,0.168 0.335,0.165 0.333,0.162C0.332,0.16 0.329,0.157 0.326,0.156C0.319,0.152 0.305,0.149 0.29,0.148C0.281,0.147 0.271,0.147 0.261,0.147C0.248,0.147 0.236,0.148 0.228,0.148ZM0.301,0.17C0.301,0.17 0.3,0.17 0.3,0.17C0.3,0.17 0.301,0.17 0.301,0.17ZM0.3,0.17C0.3,0.17 0.3,0.17 0.3,0.17C0.3,0.17 0.3,0.17 0.3,0.17C0.3,0.17 0.3,0.17 0.3,0.17ZM0.534,-0.026L0.535,-0.027L0.534,-0.027L0.534,-0.026ZM0.227,0.228C0.227,0.228 0.238,0.216 0.247,0.221C0.256,0.226 0.262,0.242 0.262,0.242C0.262,0.242 0.228,0.228 0.227,0.228ZM0.143,-0.302L0.192,-0.384L0.29,-0.395L0.108,-0.242L0.143,-0.302ZM0.091,-0.314L0.009,-0.365L0.173,-0.384L0.091,-0.245L0.091,-0.314Z" style="fill-rule:nonzero;"/>
        </g>
        <g transform="matrix(1143.58,0,0,1143.58,4555.29,1375.52)">
            <path d="M0,-0.757L0.46,-0.801L0.929,0.332L1,0.757L0.708,0.801L0,-0.757Z" style="fill-rule:nonzero;"/>
        </g>
    </g>
</svg>
